<svg height="512" viewBox="0 0 64 64" width="512" xmlns="http://www.w3.org/2000/svg"><g id="Filled_outline" data-name="Filled outline"><rect fill="#9aa1a1" height="48" rx="4" width="58" x="3" y="3"/><path d="m11 57h42v4h-42z" fill="#4e616d"/><path d="m43 57h-22l4-6h14z" fill="#7d8d9c"/><path d="m7 7h50v36h-50z" fill="#cdeef6"/><path d="m53 46h5v2h-5z" fill="#3b495a"/><path d="m49 46h2v2h-2z" fill="#3b495a"/><path d="m30 46h5v2h-5z" fill="#3b495a"/><path d="m6 46h2v2h-2z" fill="#3b495a"/><path d="m22 15h10v10h-10z" fill="#cd4b4c"/><path d="m27 22a1 1 0 0 1 -.707-.293l-2-2 1.414-1.414 1.293 1.293 7.293-7.293 1.414 1.414-8 8a1 1 0 0 1 -.707.293z" fill="#fef9e1"/><g fill="#cd4b4c"><path d="m18 38a1 1 0 0 1 -.895-.553l-4-8a1 1 0 0 1 1.79-.894l3.105 6.211 3.105-6.211a1 1 0 0 1 1.79.894l-4 8a1 1 0 0 1 -.895.553z"/><path d="m32 38h-6a1 1 0 0 1 -1-1v-8a1 1 0 0 1 1-1h6a1 1 0 0 1 1 1v8a1 1 0 0 1 -1 1zm-5-2h4v-6h-4z"/><path d="m42 30h-6a1 1 0 0 1 0-2h6a1 1 0 0 1 0 2z"/><path d="m39 38a1 1 0 0 1 -1-1v-8a1 1 0 0 1 2 0v8a1 1 0 0 1 -1 1z"/><path d="m51 38h-5a1 1 0 0 1 -1-1v-8a1 1 0 0 1 1-1h5a1 1 0 0 1 0 2h-4v6h4a1 1 0 0 1 0 2z"/><path d="m51 34h-5a1 1 0 0 1 0-2h5a1 1 0 0 1 0 2z"/></g><circle cx="15" cy="15" fill="#f9bb4b" r="2"/><path d="m15 19a2 2 0 0 1 2 2v4a0 0 0 0 1 0 0h-4a0 0 0 0 1 0 0v-4a2 2 0 0 1 2-2z" fill="#5181be"/><path d="m37 15h4v2h-4z" fill="#87c8c2"/><path d="m43 15h10v2h-10z" fill="#87c8c2"/><path d="m37 19h4v2h-4z" fill="#87c8c2"/><path d="m43 19h10v2h-10z" fill="#87c8c2"/><path d="m37 23h4v2h-4z" fill="#87c8c2"/><path d="m43 23h10v2h-10z" fill="#87c8c2"/><path d="m57 2h-50a5.006 5.006 0 0 0 -5 5v40a5.006 5.006 0 0 0 5 5h16.132l-2.667 4h-9.465a1 1 0 0 0 -1 1v4a1 1 0 0 0 1 1h42a1 1 0 0 0 1-1v-4a1 1 0 0 0 -1-1h-9.465l-2.667-4h16.132a5.006 5.006 0 0 0 5-5v-40a5.006 5.006 0 0 0 -5-5zm-5 56v2h-40v-2zm-10.869-2h-18.262l2.666-4h12.93zm18.869-9a3 3 0 0 1 -3 3h-50a3 3 0 0 1 -3-3v-40a3 3 0 0 1 3-3h50a3 3 0 0 1 3 3z"/><path d="m6 44h52v-38h-52zm2-36h48v34h-48z"/><path d="m53 46h5v2h-5z"/><path d="m49 46h2v2h-2z"/><path d="m30 46h5v2h-5z"/><path d="m6 46h2v2h-2z"/><path d="m34.293 12.293-1.833 1.833a.974.974 0 0 0 -.46-.126h-10a1 1 0 0 0 -1 1v10a1 1 0 0 0 1 1h10a1 1 0 0 0 1-1v-8.586l2.707-2.707zm-3.293 11.707h-8v-8h7.586l-3.586 3.586-1.293-1.293-1.414 1.414 2 2a1 1 0 0 0 1.414 0l3.293-3.293z"/><path d="m22.447 28.105a1 1 0 0 0 -1.342.448l-3.105 6.211-3.1-6.211a1 1 0 0 0 -1.79.894l4 8a1 1 0 0 0 1.79 0l4-8a1 1 0 0 0 -.453-1.342z"/><path d="m32 28h-6a1 1 0 0 0 -1 1v8a1 1 0 0 0 1 1h6a1 1 0 0 0 1-1v-8a1 1 0 0 0 -1-1zm-1 8h-4v-6h4z"/><path d="m42 28h-6a1 1 0 0 0 0 2h2v7a1 1 0 0 0 2 0v-7h2a1 1 0 0 0 0-2z"/><path d="m51 30a1 1 0 0 0 0-2h-5a1 1 0 0 0 -1 1v8a1 1 0 0 0 1 1h5a1 1 0 0 0 0-2h-4v-2h4a1 1 0 0 0 0-2h-4v-2z"/><path d="m18 15a3 3 0 1 0 -3 3 3 3 0 0 0 3-3zm-3 1a1 1 0 1 1 1-1 1 1 0 0 1 -1 1z"/><path d="m18 21a3 3 0 0 0 -6 0v5h6zm-2 3h-2v-3a1 1 0 0 1 2 0z"/><path d="m37 15h4v2h-4z"/><path d="m43 15h10v2h-10z"/><path d="m37 19h4v2h-4z"/><path d="m43 19h10v2h-10z"/><path d="m37 23h4v2h-4z"/><path d="m43 23h10v2h-10z"/></g></svg>