<svg id="Capa_1" enable-background="new 0 0 512 512" height="512" viewBox="0 0 512 512" width="512" xmlns="http://www.w3.org/2000/svg"><g><g><path d="m352.847 504.5h-193.694c-16.569 0-30-13.431-30-30v-437c0-16.569 13.431-30 30-30h193.693c16.569 0 30 13.431 30 30v437c.001 16.569-13.431 30-29.999 30z" fill="#d8ecfe"/><path d="m352.847 512h-193.694c-20.678 0-37.5-16.822-37.5-37.5v-437c0-20.678 16.822-37.5 37.5-37.5h193.693c20.678 0 37.5 16.822 37.5 37.5v437c.001 20.678-16.822 37.5-37.499 37.5zm-193.694-497c-12.407 0-22.5 10.094-22.5 22.5v437c0 12.406 10.093 22.5 22.5 22.5h193.693c12.407 0 22.5-10.094 22.5-22.5v-437c0-12.406-10.093-22.5-22.5-22.5z" fill="#918291"/></g><g><path d="m337.847 467h-163.694c-4.142 0-7.5-3.357-7.5-7.5s3.358-7.5 7.5-7.5h163.693c4.142 0 7.5 3.357 7.5 7.5s-3.357 7.5-7.499 7.5z" fill="#918291"/></g><g><path d="m337.847 437h-163.694c-4.142 0-7.5-3.357-7.5-7.5s3.358-7.5 7.5-7.5h163.693c4.142 0 7.5 3.357 7.5 7.5s-3.357 7.5-7.499 7.5z" fill="#918291"/></g><path d="m292.95 42.115h-73.9c-7.971 0-15.182-4.734-18.351-12.048l-9.78-22.567h130.161l-9.779 22.567c-3.169 7.314-10.379 12.048-18.351 12.048z" fill="#918291"/><path d="m254.84 161.576-25.201-25.201c-3.124-3.124-3.124-8.19 0-11.314l46.207-46.207c3.124-3.124 8.19-3.124 11.314 0l25.201 25.201c3.124 3.124 3.124 8.19 0 11.314l-46.207 46.207c-3.124 3.124-8.19 3.124-11.314 0z" fill="#fe646f"/><path d="m334.5 187.5h-157c-4.418 0-8-3.582-8-8v-21c0-4.418 3.582-8 8-8h157c4.418 0 8 3.582 8 8v21c0 4.418-3.582 8-8 8z" fill="#7a6d79"/><path d="m334.5 381.5h-157c-4.418 0-8-3.582-8-8v-36c0-4.418 3.582-8 8-8h157c4.418 0 8 3.582 8 8v36c0 4.418-3.582 8-8 8z" fill="#98d5b9"/><path d="m312.5 284.5h-113c-8.284 0-15-6.716-15-15v-82h143v82c0 8.284-6.716 15-15 15z" fill="#7a6d79"/><path d="m184.5 197.5 143 20v-30h-143z" fill="#685e68"/><g><path d="m287.187 243.5h-62.373c-4.142 0-7.5-3.357-7.5-7.5s3.358-7.5 7.5-7.5h62.373c4.142 0 7.5 3.357 7.5 7.5s-3.358 7.5-7.5 7.5z" fill="#a79ba7"/></g></g></svg>