<svg id="Capa_1" enable-background="new 0 0 512 512" height="512" viewBox="0 0 512 512" width="512" xmlns="http://www.w3.org/2000/svg"><g><path d="m30.905 400.062v-267.584c0-17.069 13.837-30.905 30.905-30.905h388.378c17.069 0 30.905 13.837 30.905 30.905v267.584z" fill="#918291"/><path d="m122.208 72.081h267.584v388.378h-267.584z" fill="#d8ecfe" transform="matrix(0 1 -1 0 522.27 10.27)"/><path d="m0 400.062h512v30.905c0 17.069-13.837 30.905-30.905 30.905h-450.19c-17.068.001-30.905-13.836-30.905-30.904z" fill="#7a6d79"/><path d="m285.82 430.968h-59.64c-5.401 0-10.338-3.051-12.753-7.882l-11.512-23.024h108.169l-11.512 23.024c-2.415 4.83-7.352 7.882-12.752 7.882z" fill="#918291"/><g><g><g><path d="m368.073 119.975-14.69 48.419-26.352 86.824c-2.133 7.046-9.581 11.023-16.627 8.89l-89.317-27.104c-7.046-2.143-11.023-9.581-8.88-16.627l41.032-135.252c2.143-7.046 9.591-11.023 16.637-8.89l89.317 27.104c7.046 2.141 11.023 9.589 8.88 16.636z" fill="#fee45a"/><path d="m368.073 119.975-14.69 48.419-40.744 1.772c-2.751.124-5.14-1.875-5.512-4.615l-.989-7.273c-1.133-8.386 4.42-16.205 12.702-17.905l32.791-6.727 5.295-17.42c1.834-6.057-.845-12.403-6.109-15.432l8.375 2.545c7.047 2.141 11.024 9.589 8.881 16.636z" fill="#fedf30"/><path d="m339.244 97.287 16.965-21.906c3.734-4.821 9.678-7.392 15.748-6.812l81.795 7.82 15.317 59.809-46.829 26.767c-8.285 4.736-17.583 7.424-27.117 7.839l-71.325 3.109c-2.756.12-5.148-1.881-5.518-4.614l-.983-7.278c-1.132-8.378 4.419-16.202 12.7-17.9l32.792-6.727 5.287-17.423c2.138-7.047-1.841-14.493-8.888-16.631z" fill="#f6a96c"/><path d="m511.782 127.829-19.79-73.104c-.935-3.453-4.581-5.408-7.974-4.277l-28.811 9.604c-3.109 1.036-4.882 4.307-4.052 7.478l19.069 72.896c.902 3.448 4.51 5.435 7.907 4.355l29.532-9.396c3.174-1.01 4.99-4.341 4.119-7.556z" fill="#fe646f"/></g></g><path d="m376.273 266.27h-225.094c-3.983 0-7.211-3.229-7.211-7.211v-16.483c0-3.983 3.229-7.211 7.211-7.211h225.094c3.983 0 7.211 3.229 7.211 7.211v16.483c.001 3.983-3.228 7.211-7.211 7.211z" fill="#aa6a51"/><path d="m357.73 400.062h-188.007c-5.69 0-10.302-4.612-10.302-10.302v-123.49h208.611v123.49c0 5.69-4.612 10.302-10.302 10.302z" fill="#aa6a51"/><path d="m159.421 266.27v10.302l208.611 20.604v-30.906z" fill="#935b44"/><g fill="#e8edf2"><circle cx="232.821" cy="333.166" r="7.726"/><circle cx="263.726" cy="333.166" r="7.726"/><circle cx="294.632" cy="333.166" r="7.726"/></g></g></g></svg>